#!OML:ASF E:/inclinewalkrobotboard/Project1/Captureday1/Session1/subject1.ASF
:FULLY-SPECIFIED
:DEGREES
113
root 0 0 0 -2.19514501887598 -4.817136205759249 -5.715173662665414
lowerback 10.467824285106186 1.8721997559656378 4.5998815471754115
upperback 0.5309659944733931 3.1113463655128184 1.6476877376262777
thorax -5.189174412195603 1.4479664237843017 -1.2881175417005257
lowerneck -16.81280869810235 -3.200223439114359 -1.6995208273743438
upperneck 19.106566185697325 -4.129918188413058 0.7142969731732629
head 8.827651243804365 -1.9804793341323492 0.0010388856891068166
rclavicle -4.501899432493438E-16 -3.290940962386164E-16
rhumerus -29.360101981594728 -18.255021396793936 -78.12599450963432
rradius 26.431081039027674
rwrist 4.323982941144264
rhand -17.632782593491925 22.68838360116527
rfingers 7.125020000000027
rthumb 8.614010023518265 -7.132783947011255
lclavicle -6.500592661235441E-16 -1.9258659502330617E-16
lhumerus -30.29663098930209 -1.5136069947699653 82.2860764414962
lradius 32.34088756161697
lwrist 5.67381716792829
lhand -25.618592374860388 23.8847685485806
lfingers 7.123962084903267
lthumb 0.9046272829146442 53.5125382726397
rfemur -8.687111860754191 5.0931849878738245 28.17874010945271
rtibia 40.29214666463096
rfoot -7.84437302807663 -5.2284632358396985
rtoes 5.449901937168035
lfemur -8.568452440240293 -2.8607230328756255 -20.222743179361657
ltibia 25.731417432111687
lfoot -11.190620920678667 1.1706570750637972
ltoes -2.7811978786657883
114
root 0 0 0 -2.210605621232149 -4.804593006030684 -5.596598316274897
lowerback 10.463289830096858 1.8292692200818896 4.469554028278722
upperback 0.5428591094641422 3.0392325370083775 1.6357111035829819
thorax -5.175077497409916 1.414972583478962 -1.218675152664664
lowerneck -16.757614079333017 -3.1900453326545635 -1.7294012007135073
upperneck 19.077502209652973 -4.114854570732385 0.7401428375318417
head 8.809565848454579 -1.9752838005379363 0.01702287248618184
rclavicle -4.421752694697627E-16 -3.2968339316293745E-16
rhumerus -29.43258603593994 -18.325930475365823 -78.1380218584258
rradius 26.365771996266208
rwrist 4.309579932340951
rhand -17.6225280817556 22.74040038246312
rfingers 7.125020000000028
rthumb 8.624375118687686 -7.08174049855068
lclavicle -6.471218046023208E-16 -1.8844988212594943E-16
lhumerus -30.28744157788957 -1.5150371388843062 82.28299357597194
lradius 32.35081751168681
lwrist 5.674887171857684
lhand -25.61783959792306 23.88750213423532
lfingers 7.123984133389122
lthumb 0.9053781207478977 53.515403385749764
rfemur -11.65164761597565 3.984197119125599 26.66403314053658
rtibia 46.06913926179204
rfoot -4.9935921736164675 -5.025355648907849
rtoes 6.616401860747202
lfemur -4.821635273097906 -3.3363051339701224 -22.261766297256706
ltibia 21.298210323735656
lfoot -13.80197648117542 2.0642557273805267
ltoes -2.6860080150986394
115
root 0 0 0 -2.2272196709326524 -4.731154989374284 -5.457492684196762
lowerback 10.46112886721282 1.77146476310548 4.315663397591459
upperback 0.548231735368033 2.9450988466776127 1.6307665576220307
thorax -5.1692426396545095 1.3720202773128003 -1.1256917911377051
lowerneck -16.736879944596584 -3.1768694764270906 -1.7478329518385367
upperneck 19.073884250211183 -4.092867442292849 0.7440044074592329
head 8.804155771958143 -1.967247294631872 0.024026222195086433
rclavicle -4.320736983444806E-16 -3.3046634553574807E-16
rhumerus -29.535061713411153 -18.427738175635554 -78.15477119336711
rradius 26.271037632624274
rwrist 4.290576017945834
rhand -17.607491239160495 22.8144642305564
rfingers 7.1250200000000286
rthumb 8.639229328749321 -7.008989836209189
lclavicle -6.434726595763305E-16 -1.8716660783181675E-16
lhumerus -30.29575295751917 -1.5041055857663466 82.28304145716535
lradius 32.32821699265229
lwrist 5.670894820168767
lhand -25.624745019013346 23.88249112085694
lfingers 7.123990233848005
lthumb 0.8981207353997576 53.515020891498445
rfemur -14.998877835932518 2.8560919082912415 24.920434884224022
rtibia 52.016040671537795
rfoot -2.0584756942726745 -4.908585432790473
rtoes 7.68704005195307
lfemur -1.9654191878523903 -3.581303204287458 -23.758326271970986
ltibia 18.72557779148624
lfoot -15.429063476473221 2.3912689734254275
ltoes -2.761684641201565
116
root 0 0 0 -2.247404735567131 -4.455694769286895 -5.24488759050523
lowerback 10.465613047250898 1.6615564349618202 4.077660482647531
upperback 0.5333228569245079 2.773435812519706 1.648386523812582
thorax -5.188514447172002 1.293910514254907 -0.9509225283064858
lowerneck -16.822365437603644 -3.153258963754425 -1.7318902045902673
upperneck 19.15180549794016 -4.048030284026413 0.6791986775533747
head 8.838960570460493 -1.949518355116649 0.0032928090855999237
rclavicle -4.115993565540857E-16 -3.3539852156440343E-16
rhumerus -29.798560228884366 -18.684034304005515 -78.2014085160293
rradius 26.027896847449874
rwrist 4.241880021238873
rhand -17.565929933437037 23.005425950263515
rfingers 7.125020000000031
rthumb 8.678059111272768 -6.821391179463458
lclavicle -6.391651330544501E-16 -1.9056854437045165E-16
lhumerus -30.382081161750687 -1.4204982459324462 82.29107953734072
lradius 32.149684475400996
lwrist 5.648869423628378
lhand -25.673352333317432 23.847085845108715
lfingers 7.123997400186943
lthumb 0.849395562100618 53.50063647710276
rfemur -18.231744990966657 2.0205282114483234 23.15847020939214
rtibia 56.592499385410385
rfoot 0.18719442753570092 -5.0313179222134155
rtoes 8.224505784597476
lfemur 0.25195658178159874 -3.5855554372575185 -24.84449793927703
ltibia 18.059540783006465
lfoot -15.935583938543456 1.9376740068486198
ltoes -3.00333186204135
